<?xml version="1.0" standalone="no"?>
<!DOCTYPE svg PUBLIC "-//W3C//DTD SVG 20010904//EN"
 "http://www.w3.org/TR/2001/REC-SVG-20010904/DTD/svg10.dtd">
<svg version="1.0" xmlns="http://www.w3.org/2000/svg"
 width="415.000000pt" height="415.000000pt" viewBox="0 0 415.000000 415.000000"
 preserveAspectRatio="xMidYMid meet">
<metadata>
Created by potrace 1.11, written by Peter Selinger 2001-2013
</metadata>
<g transform="translate(0.000000,415.000000) scale(0.100000,-0.100000)"
fill="#000000" stroke="none">
<path d="M0 4057 l0 -93 93 23 c106 28 309 64 316 57 11 -10 -100 -217 -186
-346 -90 -136 -132 -225 -117 -250 5 -7 52 -74 107 -148 114 -157 122 -142
-80 -160 l-133 -12 0 -679 c0 -537 3 -679 13 -679 6 1 57 7 112 14 55 8 104
10 109 6 21 -20 26 -103 10 -156 -21 -65 -14 -90 18 -73 13 7 43 28 67 48 l44
36 54 -60 c89 -98 150 -184 198 -280 58 -118 68 -180 59 -365 l-7 -147 24 -6
c50 -14 142 -6 232 18 27 7 27 7 27 -39 0 -168 -48 -384 -115 -520 -25 -50
-45 -97 -45 -103 0 -7 -26 -32 -57 -56 -32 -25 -67 -54 -77 -66 l-19 -21 201
0 201 0 68 68 c72 71 159 123 271 161 95 32 117 29 143 -20 28 -57 105 -136
154 -161 87 -45 119 -48 548 -48 l408 0 77 26 c105 35 194 78 230 112 29 27
30 31 25 90 l-6 61 74 -23 c72 -22 182 -65 359 -140 58 -25 99 -50 131 -82 62
-61 88 -54 30 9 -63 68 -139 114 -260 157 -60 21 -159 58 -222 83 l-114 45 1
33 c1 19 11 78 24 132 18 79 26 97 41 97 34 0 404 70 454 86 83 26 202 113
321 236 116 119 180 205 219 292 35 78 44 121 60 273 32 304 10 484 -74 607
l-32 46 39 0 c22 0 60 3 86 6 l46 7 0 998 0 999 -955 0 -955 0 0 -49 c0 -57
-6 -63 -48 -55 -30 6 -31 7 -25 55 l6 49 -170 0 -169 0 -27 -55 c-24 -49 -30
-55 -57 -55 l-30 0 25 50 c14 27 25 52 25 55 0 3 -166 5 -368 5 l-369 0 -6
-122 c-4 -66 -7 -177 -7 -245 l0 -123 -46 -62 c-25 -35 -48 -65 -51 -68 -6 -5
1 109 23 410 7 107 14 198 14 203 0 4 -78 7 -173 7 l-173 0 -18 -37 c-75 -155
-198 -430 -217 -484 -12 -35 -24 -96 -27 -135 -5 -75 6 -107 68 -199 14 -22
50 -84 78 -138 52 -97 52 -98 30 -106 -18 -7 -26 -5 -37 11 -8 11 -79 106
-158 212 -78 105 -143 197 -143 204 0 23 60 126 130 222 58 79 167 290 227
438 7 17 -497 18 -515 0 -9 -9 -12 -9 -12 0 0 7 -4 12 -10 12 -6 0 -10 -38
-10 -93z m2594 -4 c87 -39 192 -98 201 -113 11 -18 34 -10 37 13 3 19 15 25
90 43 47 12 104 24 125 28 l38 6 -35 -20 c-19 -10 -43 -19 -52 -20 -12 0 -18
-8 -18 -24 0 -20 13 -30 77 -61 l78 -36 90 21 c49 11 114 32 144 45 l53 25 -7
-47 c-9 -61 -37 -126 -69 -158 l-25 -25 27 -6 c15 -3 72 -17 127 -30 55 -14
135 -28 177 -31 73 -6 77 -7 66 -26 -17 -33 -90 -108 -119 -123 -16 -8 -41
-14 -56 -14 -56 0 -55 -9 7 -135 117 -235 162 -526 145 -930 l-7 -175 -75 0
c-54 0 -74 -3 -71 -12 6 -17 42 -26 110 -27 56 -1 212 -43 223 -60 2 -5 -37
-19 -88 -31 -157 -39 -197 -71 -197 -160 0 -142 197 -330 346 -330 42 0 83 35
95 80 6 26 7 12 4 -50 -6 -114 -41 -299 -71 -379 -66 -176 -224 -355 -382
-435 -66 -33 -398 -146 -547 -186 -60 -17 -174 -41 -252 -54 -146 -24 -163
-30 -163 -48 0 -12 170 -5 285 11 33 5 62 7 64 5 2 -2 -6 -66 -18 -143 -13
-76 -23 -164 -24 -194 l-1 -55 -61 -40 c-125 -84 -180 -95 -417 -90 -152 3
-169 6 -250 34 -164 59 -346 199 -397 307 -23 47 -23 49 -6 93 l17 46 42 -6
c110 -15 246 -27 262 -24 11 2 -24 16 -76 31 -317 93 -438 143 -559 228 -33
23 -81 47 -108 54 -47 12 -49 14 -78 82 -16 38 -40 83 -52 99 l-22 30 54 110
c61 123 98 242 122 388 22 138 13 409 -16 517 -28 102 -49 151 -64 146 -19 -6
-20 -50 -2 -114 12 -41 19 -115 22 -248 4 -162 2 -208 -15 -310 -44 -257 -125
-454 -233 -569 -86 -92 -142 -118 -271 -124 -90 -4 -101 -3 -95 11 14 38 29
197 25 270 -4 72 -10 89 -61 191 -74 146 -178 305 -252 384 -58 63 -108 98
-124 88 -5 -3 -29 45 -54 107 -25 61 -62 153 -82 202 -21 50 -48 124 -62 165
-72 219 19 484 220 636 121 91 235 128 386 122 85 -3 111 -9 235 -53 122 -44
141 -53 150 -77 11 -29 46 -39 46 -14 0 17 -46 86 -73 109 -42 35 -141 76
-214 89 -58 9 -72 15 -68 27 2 9 11 48 19 86 15 73 86 212 176 345 57 86 197
226 246 246 21 9 52 27 69 40 17 13 56 34 87 48 31 14 58 30 60 36 4 13 119
53 219 77 64 16 123 18 448 17 l374 0 36 -42 c20 -23 40 -42 45 -42 5 0 6 18
3 41 -4 30 -19 56 -58 101 -60 69 -57 69 75 11z m-1822 -14 c57 -6 106 -14
109 -17 7 -8 -1 -138 -27 -442 -15 -176 -20 -200 -44 -245 -15 -27 -38 -80
-50 -117 l-21 -67 -72 6 c-73 6 -97 15 -97 38 0 7 -25 50 -56 96 -65 99 -84
140 -84 183 0 74 68 274 175 514 31 70 20 67 167 51z m578 -39 l195 -1 -65
-27 c-36 -16 -83 -40 -105 -54 -22 -14 -63 -37 -92 -51 -28 -15 -81 -49 -117
-77 l-66 -51 0 83 c0 46 3 107 7 136 5 48 8 53 27 48 12 -3 109 -6 216 -6z
m-115 -3185 c31 -183 63 -293 111 -368 18 -28 32 -52 31 -53 -7 -6 -192 -72
-195 -70 -1 2 -8 142 -16 312 -11 275 -11 312 3 336 25 46 38 16 66 -157z
m-152 -67 c4 -73 9 -207 13 -298 l5 -165 -86 -40 c-48 -22 -92 -42 -97 -44 -5
-2 2 19 15 45 62 123 107 339 107 516 0 87 8 118 31 118 3 0 9 -60 12 -132z
m328 12 c36 -1 101 -61 126 -118 43 -98 46 -107 28 -92 -9 7 -53 56 -98 107
-71 83 -85 94 -109 91 -17 -3 -29 1 -33 10 -10 27 -5 30 33 16 20 -7 44 -13
53 -14z m296 -172 c38 -18 70 -34 72 -35 2 -1 0 -14 -3 -28 -5 -21 -11 -25
-27 -20 -11 4 -27 1 -35 -6 -8 -6 -16 -10 -18 -8 -9 10 -66 129 -61 129 2 0
35 -15 72 -32z m-165 -140 c-4 -4 -19 -9 -33 -13 -25 -6 -28 -3 -58 69 -17 41
-31 77 -31 79 0 3 29 -25 64 -62 36 -36 62 -69 58 -73z"/>
<path d="M3106 3367 c-26 -19 -17 -58 19 -78 17 -10 84 -28 150 -39 66 -12
133 -29 150 -37 49 -26 150 -134 184 -198 l32 -60 -5 70 c-8 101 -21 137 -72
194 -55 61 -133 101 -264 136 -106 28 -167 32 -194 12z"/>
<path d="M2348 3166 c-187 -86 -241 -123 -305 -210 -46 -63 -97 -202 -91 -250
3 -24 10 -18 67 64 69 98 158 187 212 212 19 9 85 37 148 63 75 32 126 60 152
85 43 41 46 51 23 74 -28 29 -83 19 -206 -38z"/>
<path d="M3375 2906 c-39 -17 -79 -64 -97 -113 -21 -61 -15 -217 11 -285 31
-79 71 -136 122 -170 135 -92 263 70 229 289 -20 126 -88 240 -165 274 -47 22
-60 23 -100 5z m42 -111 c31 -22 57 -96 50 -146 -17 -127 -135 -86 -145 50 -3
46 0 61 18 84 24 30 46 34 77 12z"/>
<path d="M2577 2765 c-48 -17 -63 -29 -92 -79 -69 -121 -49 -319 45 -443 51
-68 101 -95 168 -90 44 3 59 10 87 37 56 54 78 126 73 240 -3 65 -12 113 -27
152 -53 138 -161 216 -254 183z m51 -137 c68 -74 50 -218 -27 -218 -50 0 -91
62 -91 138 0 89 67 134 118 80z"/>
<path d="M3770 1429 c-30 -5 -107 -7 -171 -4 -103 5 -118 4 -139 -13 -91 -73
99 -247 251 -229 108 13 184 82 219 199 17 55 -28 68 -160 47z"/>
</g>
</svg>
